<svg xmlns="http://www.w3.org/2000/svg" style="margin-left:10px" viewBox="0 0 190 222" fill="none">
    <path fill-rule="evenodd" clip-rule="evenodd"
        d="M77.7634 110.976C91.8813 97.5246 87.5732 80.8884 74.787 60.7295C62.0008 40.5706 36.2621 33.3987 31.4604 37.9736C26.6587 42.5485 25.5944 75.2572 38.3806 95.4161C51.1668 115.575 63.6456 124.426 77.7634 110.976Z"
        fill="#52CE63" />
    <path fill-rule="evenodd" clip-rule="evenodd"
        d="M89.9705 112.837C100.415 129.304 114.378 123.283 131.661 106.816C148.945 90.3496 156.111 58.8063 152.559 53.2056C149.007 47.605 122.011 47.8858 104.728 64.3526C87.4445 80.8195 79.5261 96.3706 89.9705 112.837Z"
        fill="#52CE63" />
    <path fill-rule="evenodd" clip-rule="evenodd"
        d="M84.2599 103.778C101.602 105.908 108.423 89.8858 111.603 63.9875C114.782 38.0892 101.674 10.7163 95.7754 9.99206C89.8769 9.26781 70.0603 32.598 66.8804 58.4963C63.7005 84.3947 66.9174 101.649 84.2599 103.778Z"
        fill="#8AE99C" />
    <path fill-rule="evenodd" clip-rule="evenodd"
        d="M82.8256 221.673C119.186 221.673 148.674 211.11 148.674 163.209C148.674 115.308 119.186 76 82.8256 76C46.4647 76 17 115.308 17 163.209C17 211.11 46.4647 221.673 82.8256 221.673Z"
        fill="#FFE56C" />
    <path
        d="M116.084 153.43C121.278 153.43 125.489 151.471 125.489 149.055C125.489 146.639 121.278 144.681 116.084 144.681C110.889 144.681 106.679 146.639 106.679 149.055C106.679 151.471 110.889 153.43 116.084 153.43Z"
        fill="#EAADCC" />
    <path
        d="M46.4326 150.772C51.5883 151.405 56.0065 149.975 56.301 147.577C56.5954 145.179 52.6546 142.721 47.4989 142.088C42.3432 141.455 37.925 142.886 37.6306 145.284C37.3361 147.682 41.277 150.139 46.4326 150.772Z"
        fill="#EAADCC" />
    <path
        d="M88.8512 147.506C86.0205 149.807 82.751 150.745 79.0426 150.321C75.3342 149.897 72.5855 148.358 70.7965 145.704"
        stroke="black" stroke-width="6" stroke-linecap="round" stroke-linejoin="round" />
    <path fill-rule="evenodd" clip-rule="evenodd"
        d="M52.4264 124.741C55.0222 124.65 57.409 125.62 59.1694 127.261C60.9299 128.903 62.0641 131.216 62.1547 133.812C62.2454 136.408 61.2753 138.794 59.6337 140.555C57.9921 142.315 55.6788 143.449 53.0829 143.54C50.4872 143.63 48.1007 142.66 46.3404 141.019C44.5802 139.377 43.4462 137.064 43.3556 134.468C43.2649 131.873 44.2348 129.486 45.8763 127.726C47.5178 125.965 49.8308 124.831 52.4264 124.741Z"
        fill="black" />
    <path fill-rule="evenodd" clip-rule="evenodd"
        d="M52.9203 132.602C52.8613 130.912 51.4427 129.59 49.7533 129.649C48.063 129.708 46.7406 131.126 46.7996 132.816C46.8586 134.506 48.2767 135.829 49.9671 135.77C51.6564 135.71 52.9793 134.292 52.9203 132.602Z"
        fill="white" />
    <path fill-rule="evenodd" clip-rule="evenodd"
        d="M109.414 127.128C112.01 127.037 114.397 128.007 116.157 129.648C117.917 131.29 119.051 133.603 119.142 136.199C119.233 138.795 118.263 141.181 116.621 142.942C114.98 144.702 112.667 145.836 110.071 145.927C107.475 146.017 105.088 145.047 103.328 143.406C101.568 141.764 100.434 139.451 100.343 136.855C100.252 134.259 101.222 131.873 102.864 130.113C104.505 128.352 106.819 127.218 109.414 127.128Z"
        fill="black" />
    <path
        d="M60.8431 133.857C60.9991 138.325 57.5044 142.072 53.0371 142.228C48.5703 142.384 44.8231 138.89 44.6671 134.422C44.5111 129.955 48.0054 126.208 52.4722 126.052C56.9395 125.896 60.6871 129.39 60.8431 133.857ZM63.4663 133.766C63.2597 127.85 58.2966 123.222 52.3806 123.429C46.465 123.636 41.8374 128.598 42.044 134.514C42.2506 140.43 47.213 145.058 53.1287 144.851C59.0447 144.645 63.6729 139.682 63.4663 133.766Z"
        fill="white" stroke="white" stroke-width="3" />
    <path
        d="M117.83 136.245C117.986 140.712 114.492 144.459 110.025 144.615C105.558 144.771 101.81 141.277 101.654 136.81C101.498 132.343 104.993 128.595 109.46 128.439C113.927 128.283 117.674 131.778 117.83 136.245ZM120.454 136.153C120.247 130.237 115.284 125.61 109.368 125.816C103.453 126.023 98.8247 130.986 99.0313 136.901C99.2379 142.817 104.201 147.445 110.117 147.238C116.033 147.032 120.66 142.069 120.454 136.153Z"
        fill="white" stroke="white" stroke-width="3" />
    <path fill-rule="evenodd" clip-rule="evenodd"
        d="M109.908 134.99C109.849 133.3 108.43 131.977 106.74 132.036C105.05 132.095 103.728 133.513 103.787 135.203C103.846 136.893 105.264 138.216 106.954 138.157C108.644 138.098 109.967 136.68 109.908 134.99Z"
        fill="white" />
    <path d="M32.9673 167.647L65.339 201.331" stroke="#ECB732" stroke-width="11"
        stroke-linecap="round" />
    <path d="M60.9645 171.584L40.4041 193.457" stroke="#ECB732" stroke-width="11"
        stroke-linecap="round" />
    <path d="M132.27 167.647L99.8981 201.331" stroke="#ECB732" stroke-width="11"
        stroke-linecap="round" />
    <path d="M104.273 171.584L124.833 193.457" stroke="#ECB732" stroke-width="11"
        stroke-linecap="round" />
    <path d="M95.961 93.2795L74.5256 114.715" stroke="#FFC73B" stroke-width="11"
        stroke-linecap="round" />
    <path d="M91.5865 114.715L70.1511 93.2795" stroke="#FFC73B" stroke-width="11"
        stroke-linecap="round" />
</svg>